<svg width="34.000000" height="33.605286" viewBox="0 0 34 33.6053" fill="none" xmlns="http://www.w3.org/2000/svg" xmlns:xlink="http://www.w3.org/1999/xlink">
	<desc>
			Created with Pixso.
	</desc>
	<defs>
		<clipPath id="clip239_194">
			<rect id="delivery 1" width="34.000000" height="33.605297" fill="white" fill-opacity="0"/>
		</clipPath>
	</defs>
	<rect id="delivery 1" width="34.000000" height="33.605297" fill="#FFFFFF" fill-opacity="0"/>
	<g clip-path="url(#clip239_194)">
		<path id="Vector" d="M6.51758 24.4691L6.92517 25.4395C7.21265 25.3215 7.51208 25.2343 7.81836 25.1793L7.6283 24.1455C7.24756 24.214 6.87512 24.3224 6.51758 24.4691Z" fill="#00AAFF" fill-opacity="1.000000" fill-rule="nonzero"/>
		<path id="Vector" d="M3.72681 27.0753L4.68311 27.5331C5.01404 26.8583 5.51746 26.2807 6.14355 25.8572L5.54382 24.9902C4.76489 25.5171 4.13855 26.2358 3.72681 27.0753Z" fill="#00AAFF" fill-opacity="1.000000" fill-rule="nonzero"/>
		<path id="Vector" d="M32.9375 26.7798C32.9381 25.8755 32.6008 25.0029 31.9904 24.3293L31.1987 25.0297C31.5128 25.3761 31.7279 25.799 31.8219 26.2548L28.1562 26.2548C28.0688 26.2548 27.9827 26.2761 27.9056 26.3169C27.8285 26.3577 27.7628 26.4166 27.7142 26.4886L25.7469 29.4052L24.4375 29.4052L24.4375 27.83C24.4386 26.8555 24.8308 25.9213 25.528 25.2322C26.2251 24.5432 27.1703 24.1555 28.1562 24.1544L29.2188 24.1544C29.7412 24.1535 30.2522 24.3057 30.6871 24.5917L31.2755 23.7172C30.8168 23.4154 30.2955 23.2188 29.75 23.1418L29.75 21.529C29.75 21.3897 29.6941 21.2562 29.5944 21.1577C29.4948 21.0592 29.3596 21.0039 29.2188 21.0039C28.6554 21.0033 28.1152 20.7818 27.7168 20.3881C27.3185 19.9943 27.0944 19.4604 27.0938 18.9036L27.0938 16.8033L28.6875 16.8033C28.8284 16.8033 28.9635 16.748 29.0631 16.6495C29.1628 16.551 29.2188 16.4174 29.2188 16.2782L29.2188 12.6026C29.2188 12.4633 29.1628 12.3298 29.0631 12.2313C28.9635 12.1328 28.8284 12.0775 28.6875 12.0775L27.7505 12.0775C27.5286 12.0779 27.3076 12.1079 27.0938 12.167L27.0938 11.5524C27.0938 11.4332 27.0527 11.3174 26.9773 11.2243L25.2391 9.07666C25.4669 8.69705 25.5488 8.24911 25.4698 7.81473C25.391 7.38034 25.1566 6.98853 24.8096 6.71088C24.4624 6.43323 24.0259 6.28833 23.5796 6.30258C23.1333 6.31686 22.7072 6.48941 22.3789 6.78867C22.0508 7.08792 21.8425 7.4939 21.7922 7.9324C21.7419 8.37091 21.8529 8.81268 22.105 9.17694C22.3571 9.54123 22.7334 9.80368 23.1652 9.91632C23.5968 10.029 24.0552 9.98431 24.4563 9.79053L26.0312 11.7366L26.0312 12.3991L23.6958 11.6297C23.5427 11.5775 23.382 11.5514 23.2201 11.5524L18.8381 11.5524L16.316 8.64407C16.527 8.49918 16.6995 8.30597 16.8186 8.08093C16.9376 7.8559 16.9999 7.60574 17 7.35178L17 7.15118L17.7688 6.77124C17.8362 6.73792 17.8956 6.69086 17.9432 6.63312C17.9907 6.57538 18.0254 6.5083 18.0447 6.43634C18.064 6.36438 18.0676 6.28918 18.0553 6.21573C18.043 6.14227 18.015 6.07227 17.9733 6.01031L17.1007 4.71664C17.2218 4.69354 17.3311 4.62946 17.4097 4.53543C17.4882 4.44138 17.5312 4.32324 17.5312 4.20126C17.5303 3.366 17.1941 2.56522 16.5966 1.97461C15.999 1.38397 15.1888 1.05173 14.3438 1.05078C13.3434 1.05078 12.417 1.33478 11.728 2.08728C11.4294 2.41385 11.2034 2.79849 11.0642 3.21655C10.9249 3.63458 10.8757 4.07678 10.9197 4.51474L11.0333 5.63791C11.0812 6.12216 11.3153 6.56976 11.6875 6.88824L11.6875 16.8033C11.6873 17.1721 11.7859 17.5345 11.9734 17.8534L11.1562 17.8534C10.9752 17.8534 10.7955 17.8839 10.625 17.9438L10.625 11.0273C10.6245 10.6097 10.4564 10.2093 10.1577 9.914C9.85889 9.61868 9.45374 9.45258 9.03125 9.45212L2.65625 9.45212C2.23376 9.45258 1.82861 9.61868 1.52979 9.914C1.23108 10.2093 1.06299 10.6097 1.0625 11.0273L1.0625 13.6528L2.125 13.6528L2.125 12.6026L9.5625 12.6026L9.5625 17.8534L2.125 17.8534L2.125 14.7029L1.0625 14.7029L1.0625 18.9904C1.06238 19.2364 1.14966 19.4746 1.30908 19.6635C1.46863 19.8523 1.69006 19.9798 1.93494 20.0237L6.90625 20.9171L6.90625 22.1493C6.45581 22.2523 6.01599 22.3963 5.59229 22.5792L2.65625 22.5792C2.51538 22.5792 2.38025 22.6345 2.28064 22.733C2.18103 22.8315 2.125 22.965 2.125 23.1042L2.125 25.5966C1.43091 26.7486 1.06384 28.0644 1.0625 29.4052C1.0625 29.5445 1.11853 29.6781 1.21814 29.7766C1.31775 29.875 1.45288 29.9303 1.59375 29.9303L4.02893 29.9303C4.34644 30.706 4.89099 31.3703 5.59302 31.838C6.29492 32.3058 7.12219 32.5557 7.96875 32.5557C8.81531 32.5557 9.64258 32.3058 10.3445 31.838C11.0465 31.3703 11.5911 30.706 11.9086 29.9303L20.8409 29.9303C21.2111 29.9301 21.577 29.8536 21.9154 29.7057C22.2539 29.5577 22.5574 29.3416 22.8065 29.0712L23.375 28.4529L23.375 29.9303C23.375 30.0696 23.4309 30.2032 23.5306 30.3016C23.6302 30.4001 23.7654 30.4554 23.9062 30.4554L25.007 30.4554C25.4749 31.2562 26.1969 31.882 27.0612 32.2358C27.9255 32.5897 28.8838 32.6518 29.7875 32.4124C30.6912 32.1731 31.4896 31.6458 32.0592 30.9122C32.6288 30.1786 32.9375 29.2798 32.9375 28.3551C32.9379 27.9529 32.8796 27.5528 32.7644 27.1671C32.819 27.118 32.8625 27.0582 32.8923 26.9915C32.9221 26.9248 32.9375 26.8528 32.9375 26.7798ZM22.8438 8.1394C22.8438 7.98361 22.8905 7.83133 22.978 7.70181C23.0656 7.5723 23.1901 7.47134 23.3357 7.41174C23.4813 7.35211 23.6415 7.33652 23.7961 7.36691C23.9507 7.39731 24.0927 7.47232 24.2041 7.58246C24.3156 7.69263 24.3915 7.83295 24.4222 7.98575C24.4529 8.13852 24.4371 8.29688 24.3768 8.4408C24.3165 8.58472 24.2144 8.70773 24.0834 8.79428C23.9523 8.88083 23.7982 8.92703 23.6406 8.92703C23.4293 8.92679 23.2268 8.84375 23.0774 8.69608C22.928 8.54843 22.844 8.34821 22.8438 8.1394ZM15.2435 26.7798C14.7233 26.7792 14.2245 26.5747 13.8567 26.2111C13.4888 25.8475 13.2819 25.3545 13.2812 24.8402C13.2812 24.3247 13.4131 23.8426 13.7607 23.446C14.0704 23.0934 14.4982 22.8628 14.9658 22.7962C15.5303 22.7165 16.0468 22.4384 16.4204 22.0127C16.7941 21.587 16.9999 21.0424 17 20.4789C17.0001 20.4099 16.9863 20.3415 16.9597 20.2778C16.933 20.214 16.8937 20.1561 16.8442 20.1074C16.9346 19.9208 16.9867 19.7184 16.9978 19.5118C17.0088 19.3053 16.9785 19.0986 16.9086 18.9036L18.3514 18.9036L16.0203 24.8944C15.9639 25.0387 15.9358 25.1922 15.9375 25.3468L15.9375 26.7798L15.2435 26.7798ZM17 25.7297L19.6562 25.7297C19.7701 25.7298 19.8811 25.7661 19.9725 25.8332C20.064 25.9004 20.1312 25.9948 20.1642 26.1026C20.1973 26.2104 20.1943 26.3257 20.1559 26.4318C20.1176 26.5378 20.0457 26.6288 19.9509 26.6913C19.8174 26.7492 19.6732 26.7793 19.5275 26.7798L17 26.7798L17 25.7297ZM21.1227 25.6378C21.017 25.3935 20.8507 25.1794 20.6392 25.0155C20.4275 24.8515 20.1776 24.743 19.9124 24.6999L22.1124 19.4646C22.308 18.9993 22.3843 18.4935 22.3347 17.9921C22.285 17.4907 22.1111 17.0091 21.828 16.59C21.545 16.171 21.1617 15.8275 20.7123 15.5899C20.2628 15.3523 19.7609 15.228 19.2512 15.228L17 15.228L17 14.3954L17.1556 14.5492C17.205 14.5979 17.2635 14.6366 17.328 14.663C17.3925 14.6894 17.4614 14.7029 17.5312 14.7029L22.9352 14.7029C22.85 14.9405 22.8239 15.1948 22.8588 15.4445C22.8938 15.6941 22.9889 15.9318 23.1361 16.1376C23.2832 16.3434 23.4783 16.5113 23.7047 16.6271C23.9313 16.7429 24.1825 16.8033 24.4375 16.8033L24.439 16.8033C24.0927 17.257 23.9056 17.8101 23.9062 18.3785L23.9062 22.4518C23.9054 22.7302 23.7936 22.997 23.595 23.1944L21.1227 25.6378ZM24.4375 15.7531C24.3324 15.7531 24.2297 15.7223 24.1423 15.6646C24.0549 15.6069 23.9869 15.5249 23.9467 15.429C23.9065 15.333 23.896 15.2274 23.9165 15.1256C23.937 15.0237 23.9875 14.9302 24.0619 14.8567C24.1361 14.7833 24.2308 14.7333 24.3339 14.713C24.4369 14.6927 24.5437 14.7032 24.6407 14.7429C24.7379 14.7827 24.8208 14.8499 24.8793 14.9363C24.9376 15.0226 24.9688 15.1242 24.9688 15.228C24.9686 15.3672 24.9126 15.5007 24.813 15.5991C24.7134 15.6976 24.5784 15.7529 24.4375 15.7531ZM28.1562 13.1277L28.1562 15.7531L27.0938 15.7531L27.0938 13.2912C27.2958 13.1843 27.5214 13.1281 27.7505 13.1277L28.1562 13.1277ZM26.0312 15.228C26.0314 14.976 25.9702 14.7276 25.853 14.5038C25.7358 14.2799 25.566 14.0872 25.3578 13.9417C25.1495 13.7962 24.9091 13.7022 24.6565 13.6676C24.4039 13.6331 24.1466 13.659 23.9062 13.7431L23.9062 12.8061L26.0312 13.5061L26.0312 15.228ZM18.5938 12.6026L22.8438 12.6026L22.8438 13.6528L17.7513 13.6528L14.7194 10.6561L13.9681 11.3987L15.9375 13.3451L15.9375 15.228L12.75 15.228L12.75 8.92703L15.1619 8.92703L18.1904 12.4193C18.2402 12.4768 18.3021 12.5229 18.3718 12.5546C18.4414 12.5862 18.5171 12.6026 18.5938 12.6026ZM12.5157 2.79196C13.0015 2.26157 13.6459 2.10095 14.3438 2.10095C14.8147 2.10153 15.2722 2.2565 15.6445 2.54153C16.017 2.82657 16.2832 3.22562 16.4015 3.67621L14.3438 3.67621C14.2029 3.67621 14.0677 3.73151 13.9681 3.82999C13.8685 3.92847 13.8125 4.06201 13.8125 4.20126L13.8125 5.44836C13.8118 5.66672 13.7262 5.8765 13.5737 6.03445C13.4211 6.19241 13.2131 6.28656 12.9924 6.29749C12.7717 6.30841 12.5553 6.23532 12.3875 6.09323C12.2197 5.95114 12.1135 5.75089 12.0906 5.53366L11.9769 4.41052C11.9458 4.11841 11.9777 3.82309 12.0706 3.54407C12.1635 3.26508 12.3152 3.00873 12.5157 2.79196ZM12.9492 7.35178C13.4598 7.35126 13.9493 7.15054 14.3104 6.7937C14.6714 6.43686 14.8745 5.953 14.875 5.44836L14.875 4.72635L15.9375 4.72635C15.9375 4.83005 15.9685 4.9314 16.0267 5.01764L16.7554 6.09814L16.2308 6.35727C16.1427 6.40091 16.0686 6.46793 16.0167 6.55084C15.965 6.63373 15.9375 6.72925 15.9375 6.82669L15.9375 7.35178C15.9374 7.491 15.8813 7.62445 15.7817 7.7229C15.6821 7.82132 15.5471 7.87671 15.4062 7.87686L12.75 7.87686L12.75 7.34146C12.8162 7.34824 12.8827 7.35168 12.9492 7.35178ZM12.75 16.8033L12.75 16.2782L19.2512 16.2782C19.5861 16.2782 19.9159 16.3599 20.2112 16.516C20.5066 16.6721 20.7583 16.8979 20.9443 17.1732C21.1302 17.4486 21.2445 17.765 21.2771 18.0945C21.3097 18.424 21.2595 18.7563 21.1311 19.062L18.7704 24.6795L17.2423 24.6795L19.6208 18.567C19.6519 18.4875 19.6627 18.4017 19.6526 18.317C19.6426 18.2324 19.6117 18.1515 19.563 18.0812C19.5142 18.011 19.4487 17.9536 19.3724 17.9138C19.2961 17.8742 19.2112 17.8534 19.125 17.8534L13.8125 17.8534C13.5308 17.8531 13.2607 17.7423 13.0615 17.5455C12.8624 17.3486 12.7504 17.0817 12.75 16.8033ZM11.1562 18.9036L15.4062 18.9036C15.5471 18.9036 15.6823 18.9589 15.7819 19.0574C15.8815 19.1559 15.9375 19.2894 15.9375 19.4287C15.9375 19.5679 15.8815 19.7015 15.7819 19.8C15.6823 19.8984 15.5471 19.9538 15.4062 19.9538L11.1562 19.9538C11.0154 19.9538 10.8802 19.8984 10.7806 19.8C10.681 19.7015 10.625 19.5679 10.625 19.4287C10.625 19.2894 10.681 19.1559 10.7806 19.0574C10.8802 18.9589 11.0154 18.9036 11.1562 18.9036ZM2.125 11.5524L2.125 11.0273C2.12512 10.8882 2.18115 10.7547 2.28076 10.6562C2.38037 10.5578 2.51538 10.5024 2.65625 10.5023L9.03125 10.5023C9.17212 10.5024 9.30713 10.5578 9.40674 10.6562C9.50635 10.7547 9.56238 10.8882 9.5625 11.0273L9.5625 11.5524L2.125 11.5524ZM2.125 18.9036L9.5625 18.9036L9.5625 19.9538L7.48535 19.9538L2.125 18.9904L2.125 18.9036ZM3.84424 23.6293C3.61365 23.8144 3.39441 24.0128 3.1875 24.2235L3.1875 23.6293L3.84424 23.6293ZM7.96875 31.5056C7.40979 31.5031 6.86121 31.3565 6.3772 31.0802C5.89319 30.804 5.4906 30.4076 5.20898 29.9303L6.56458 29.9303C6.95215 30.2687 7.45154 30.4554 7.96875 30.4554C8.48596 30.4554 8.98535 30.2687 9.37292 29.9303L10.7285 29.9303C10.4469 30.4076 10.0443 30.804 9.5603 31.0802C9.07629 31.3565 8.52771 31.5031 7.96875 31.5056ZM22.0203 28.3649C21.8708 28.5272 21.6887 28.6568 21.4856 28.7455C21.2826 28.8342 21.063 28.8801 20.8409 28.8802L2.14697 28.8802C2.26123 27.5093 2.81958 26.2114 3.73914 25.179C4.65881 24.1466 5.89062 23.4348 7.25195 23.1491C7.38928 23.1196 7.52942 23.1046 7.66992 23.1042L11.1562 23.1042L11.1562 22.0541L7.96875 22.0541L7.96875 21.0039L15.8246 21.0039C15.7346 21.2036 15.5947 21.3774 15.4182 21.5091C15.2417 21.6408 15.0342 21.7261 14.8152 21.7569C14.0946 21.8593 13.4353 22.2147 12.9579 22.758C12.4438 23.343 12.2188 24.075 12.2188 24.8403C12.2183 25.5518 12.4757 26.2399 12.9445 26.7798L8.5 26.7798L8.5 27.83L19.5275 27.83C20.0902 27.8259 20.6292 27.6052 21.03 27.2148L24.3463 23.937C24.7434 23.5422 24.967 23.0085 24.9688 22.4518L24.9688 18.3785C24.9691 18.0528 25.0714 17.7353 25.2617 17.4693C25.4519 17.2034 25.7207 17.0022 26.0312 16.8932L26.0312 18.9036C26.0322 19.6479 26.2993 20.3679 26.7854 20.9364C27.2715 21.5049 27.9452 21.8853 28.6875 22.0103L28.6875 23.1042C28.3577 23.1042 28.0201 23.0846 27.6923 23.1269C26.6985 23.2243 25.7603 23.6263 25.0089 24.2765C24.2576 24.9267 23.7306 25.7928 23.5016 26.7536L22.0203 28.3649ZM28.4406 27.3049L28.4675 27.3049L29.1088 27.9388C29.2202 28.0493 29.2828 28.199 29.2832 28.3551C29.2832 28.4715 29.2483 28.5854 29.1827 28.6822C29.1173 28.779 29.0243 28.8545 28.9154 28.899C28.8066 28.9436 28.6869 28.9553 28.5713 28.9326C28.4557 28.9098 28.3496 28.8538 28.2662 28.7714L27.7773 28.2882L28.4406 27.3049ZM28.6875 31.5056C28.2272 31.5042 27.7726 31.4047 27.3546 31.2141C26.9366 31.0234 26.5652 30.7461 26.2654 30.4008C26.3494 30.3603 26.4211 30.2984 26.4733 30.2216L26.9338 29.539C27.1897 29.9098 27.559 30.1898 27.9875 30.338C28.4161 30.4861 28.8815 30.4946 29.3153 30.3622C29.7491 30.2297 30.1287 29.9634 30.3981 29.6022C30.6676 29.2409 30.8127 28.8039 30.8125 28.3551C30.8132 28.0439 30.7432 27.7366 30.6074 27.4559C30.5826 27.4042 30.5553 27.3542 30.5266 27.3049L31.6934 27.3049C31.863 27.7802 31.9148 28.2887 31.8446 28.7878C31.7743 29.287 31.584 29.7622 31.2896 30.1736C30.9951 30.5851 30.6052 30.9207 30.1525 31.1525C29.6997 31.3842 29.1974 31.5053 28.6875 31.5056Z" fill="#00AAFF" fill-opacity="1.000000" fill-rule="nonzero"/>
		<path id="Vector" d="M3.1875 13.6521L4.25 13.6521L4.25 16.8026L3.1875 16.8026L3.1875 13.6521Z" fill="#00AAFF" fill-opacity="1.000000" fill-rule="evenodd"/>
	</g>
</svg>
