<svg width="34.000000" height="34.000000" viewBox="0 0 34 34" fill="none" xmlns="http://www.w3.org/2000/svg" xmlns:xlink="http://www.w3.org/1999/xlink">
	<desc>
			Created with Pixso.
	</desc>
	<defs>
		<clipPath id="clip239_204">
			<rect id="stopwatch 1" width="34.000000" height="34.000000" fill="white" fill-opacity="0"/>
		</clipPath>
	</defs>
	<rect id="stopwatch 1" width="34.000000" height="34.000000" fill="#FFFFFF" fill-opacity="0"/>
	<g clip-path="url(#clip239_204)">
		<path id="XMLID_292_" d="M31.7544 12.8813L32.7502 11.8853C33.0383 11.5974 33.1969 11.2146 33.1969 10.8075C33.1969 10.4003 33.0383 10.0175 32.7504 9.72964L31.6096 8.58884C31.3217 8.30096 30.9388 8.1424 30.5319 8.1424C30.1246 8.1424 29.7418 8.30096 29.454 8.58884L28.4579 9.58487C27.1433 8.67941 25.6517 8.01376 24.046 7.65167L24.046 6.1795L24.6521 6.1795C25.4727 6.1795 26.1403 5.51184 26.1403 4.69128L26.1403 2.62085C26.1403 1.8002 25.4727 1.13257 24.6521 1.13257L17.8004 1.13257C16.9799 1.13257 16.3123 1.8002 16.3123 2.62085L16.3123 4.69119C16.3123 5.51178 16.9799 6.17944 17.8004 6.17944L18.4064 6.17944L18.4064 7.6557C16.8081 8.01883 15.3231 8.68295 14.0138 9.58481L13.0177 8.58878C12.7299 8.3009 12.347 8.14233 11.9399 8.14233C11.5327 8.14233 11.15 8.3009 10.8621 8.58878L9.72131 9.72958C9.12708 10.3239 9.12708 11.2909 9.72131 11.8853L9.89795 12.0618L5.1908 12.0618C4.8241 12.0618 4.52673 12.3591 4.52673 12.7259C4.52673 13.0927 4.8241 13.39 5.1908 13.39L10.3844 13.39C9.88965 14.1869 9.47998 15.0418 9.16858 15.9424L0.664062 15.9424C0.297363 15.9424 0 16.2397 0 16.6064C0 16.9732 0.297363 17.2705 0.664062 17.2705L8.78894 17.2705C8.60168 18.0942 8.49426 18.9478 8.47522 19.823L4.25 19.823C3.8833 19.823 3.58594 20.1203 3.58594 20.487C3.58594 20.8538 3.8833 21.1511 4.25 21.1511L8.51489 21.1511C8.58667 22.0299 8.74805 22.8836 8.9895 23.7036L3.32031 23.7036C2.95361 23.7036 2.65625 24.0009 2.65625 24.3676C2.65625 24.7344 2.95361 25.0317 3.32031 25.0317L9.46179 25.0317C11.3938 29.63 15.9436 32.8676 21.2358 32.8676C28.274 32.8676 34 27.1416 34 20.1034C34 17.4247 33.1698 14.9365 31.7544 12.8813ZM30.3931 9.52795C30.4406 9.48047 30.4946 9.47052 30.5319 9.47052C30.5688 9.47052 30.623 9.48047 30.6705 9.52795L31.8113 10.6688C31.8588 10.7162 31.8688 10.7704 31.8688 10.8075C31.8688 10.8445 31.8588 10.8987 31.8113 10.9462L30.9382 11.8192C30.5032 11.3104 30.0288 10.8362 29.52 10.4011L30.3931 9.52795ZM17.6403 4.69128L17.6403 2.62085C17.6403 2.53253 17.7122 2.46069 17.8004 2.46069L24.6521 2.46069C24.7404 2.46069 24.8121 2.53253 24.8121 2.62085L24.8121 4.69119C24.8121 4.77954 24.7404 4.85132 24.6521 4.85132L23.382 4.85132L19.0704 4.85132L17.8004 4.85132C17.7122 4.85138 17.6403 4.77954 17.6403 4.69128ZM19.7345 6.1795L22.7179 6.1795L22.7179 7.42575C22.2314 7.36923 21.7372 7.3392 21.2358 7.3392C20.7279 7.3392 20.2272 7.36996 19.7346 7.42795L19.7345 6.1795ZM10.6604 10.6687L11.8011 9.52789C11.8486 9.48041 11.9027 9.47046 11.9399 9.47046C11.9769 9.47046 12.0311 9.48041 12.0786 9.52789L12.9517 10.401C12.4429 10.8361 11.9686 11.3104 11.5334 11.8192L10.6604 10.9461C10.5839 10.8697 10.5839 10.7452 10.6604 10.6687ZM21.2358 31.5394C14.9299 31.5394 9.7998 26.4092 9.7998 20.1033C9.7998 13.7975 14.9299 8.66727 21.2358 8.66727C27.5416 8.66727 32.6719 13.7975 32.6719 20.1033C32.6719 26.4092 27.5416 31.5394 21.2358 31.5394Z" fill="#FF6838" fill-opacity="1.000000" fill-rule="nonzero"/>
		<path id="XMLID_899_" d="M25.6188 14.7812L22.4797 17.9203C22.1127 17.7103 21.6881 17.5895 21.2358 17.5895C19.8497 17.5895 18.722 18.7172 18.722 20.1034C18.722 21.4894 19.8497 22.6171 21.2358 22.6171C22.6219 22.6171 23.7495 21.4894 23.7495 20.1034C23.7495 19.651 23.6288 19.2265 23.4188 18.8594L26.558 15.7203C26.8173 15.461 26.8173 15.0405 26.558 14.7812C26.2986 14.5219 25.8782 14.5219 25.6188 14.7812ZM21.2358 21.289C20.582 21.289 20.0502 20.7572 20.0502 20.1034C20.0502 19.4496 20.582 18.9177 21.2358 18.9177C21.8895 18.9177 22.4214 19.4496 22.4214 20.1034C22.4214 20.7572 21.8895 21.289 21.2358 21.289Z" fill="#FF6838" fill-opacity="1.000000" fill-rule="nonzero"/>
		<path id="XMLID_900_" d="M21.2361 11.4937C21.4108 11.4937 21.582 11.4226 21.7056 11.2991C21.829 11.1756 21.9001 11.0042 21.9001 10.8296C21.9001 10.6549 21.8291 10.4836 21.7056 10.3601C21.582 10.2366 21.4108 10.1655 21.2361 10.1655C21.0614 10.1655 20.8901 10.2366 20.7666 10.3601C20.6431 10.4836 20.572 10.6549 20.572 10.8296C20.572 11.0049 20.6431 11.1756 20.7666 11.2991C20.8901 11.4226 21.0614 11.4937 21.2361 11.4937Z" fill="#FF6838" fill-opacity="1.000000" fill-rule="nonzero"/>
		<path id="XMLID_901_" d="M21.2361 28.7126C21.0614 28.7126 20.8901 28.7837 20.7666 28.9072C20.6431 29.0307 20.572 29.2021 20.572 29.3767C20.572 29.552 20.6431 29.7227 20.7666 29.8462C20.8901 29.9704 21.0614 30.0408 21.2361 30.0408C21.4108 30.0408 21.582 29.9704 21.7056 29.8462C21.829 29.7227 21.9001 29.5514 21.9001 29.3767C21.9001 29.2021 21.8291 29.0307 21.7056 28.9072C21.582 28.7837 21.4108 28.7126 21.2361 28.7126Z" fill="#FF6838" fill-opacity="1.000000" fill-rule="nonzero"/>
		<path id="XMLID_902_" d="M14.6785 12.8816C14.5038 12.8816 14.3325 12.9526 14.209 13.0762C14.0854 13.1997 14.0144 13.371 14.0144 13.5457C14.0144 13.721 14.0854 13.8916 14.209 14.0158C14.3325 14.1393 14.5038 14.2097 14.6785 14.2097C14.8531 14.2097 15.0244 14.1393 15.1479 14.0158C15.2714 13.8916 15.3425 13.721 15.3425 13.5457C15.3425 13.371 15.2715 13.2003 15.1479 13.0762C15.0244 12.9526 14.8531 12.8816 14.6785 12.8816Z" fill="#FF6838" fill-opacity="1.000000" fill-rule="nonzero"/>
		<path id="XMLID_903_" d="M27.7937 25.9966C27.6183 25.9966 27.4478 26.0676 27.3235 26.1912C27.2001 26.3147 27.1296 26.486 27.1296 26.6606C27.1296 26.8353 27.2001 27.0066 27.3235 27.1301C27.4478 27.2537 27.6183 27.3247 27.7937 27.3247C27.9684 27.3247 28.1396 27.2537 28.2632 27.1301C28.3866 27.0066 28.4578 26.8353 28.4578 26.6606C28.4578 26.486 28.3867 26.3147 28.2632 26.1912C28.1396 26.0676 27.9684 25.9966 27.7937 25.9966Z" fill="#FF6838" fill-opacity="1.000000" fill-rule="nonzero"/>
		<path id="XMLID_904_" d="M14.6785 25.9966C14.5038 25.9966 14.3325 26.0676 14.209 26.1912C14.0854 26.3147 14.0144 26.486 14.0144 26.6606C14.0144 26.8353 14.0854 27.0066 14.209 27.1301C14.3325 27.2537 14.5038 27.3247 14.6785 27.3247C14.8531 27.3247 15.0244 27.2537 15.1479 27.1301C15.2714 27.0066 15.3425 26.8353 15.3425 26.6606C15.3425 26.486 15.2715 26.3147 15.1479 26.1912C15.0244 26.0676 14.8531 25.9966 14.6785 25.9966Z" fill="#FF6838" fill-opacity="1.000000" fill-rule="nonzero"/>
		<path id="XMLID_905_" d="M11.9624 19.439C11.7871 19.439 11.6165 19.51 11.4929 19.6335C11.3688 19.757 11.2983 19.9284 11.2983 20.103C11.2983 20.2777 11.3688 20.449 11.4929 20.5725C11.6165 20.6967 11.7871 20.7671 11.9624 20.7671C12.1371 20.7671 12.3083 20.6967 12.4319 20.5725C12.5553 20.449 12.6265 20.2777 12.6265 20.103C12.6265 19.9284 12.5554 19.757 12.4319 19.6335C12.3083 19.51 12.1371 19.439 11.9624 19.439Z" fill="#FF6838" fill-opacity="1.000000" fill-rule="nonzero"/>
		<path id="XMLID_906_" d="M30.9791 19.6335C30.8556 19.51 30.6843 19.439 30.5096 19.439C30.3344 19.439 30.1637 19.51 30.0402 19.6335C29.9167 19.757 29.8456 19.9284 29.8456 20.103C29.8456 20.2784 29.9166 20.449 30.0402 20.5725C30.1637 20.696 30.335 20.7671 30.5096 20.7671C30.6843 20.7671 30.8556 20.696 30.9791 20.5725C31.1027 20.449 31.1737 20.2777 31.1737 20.103C31.1736 19.9284 31.1027 19.7571 30.9791 19.6335Z" fill="#FF6838" fill-opacity="1.000000" fill-rule="nonzero"/>
		<path id="XMLID_912_" d="M0.664062 23.7036C0.48938 23.7036 0.318115 23.774 0.19458 23.8975C0.0710449 24.0217 0 24.1924 0 24.3677C0 24.5423 0.0710449 24.713 0.19458 24.8372C0.318115 24.9607 0.48938 25.0317 0.664062 25.0317C0.838745 25.0317 1.01001 24.9607 1.13354 24.8372C1.25696 24.7137 1.32812 24.5423 1.32812 24.3677C1.32812 24.1924 1.25708 24.021 1.13354 23.8975C1.01001 23.774 0.838745 23.7036 0.664062 23.7036Z" fill="#FF6838" fill-opacity="1.000000" fill-rule="nonzero"/>
		<path id="XMLID_916_" d="M30.3142 18.0869C30.6656 17.9821 30.8657 17.6123 30.761 17.2608C30.2915 15.6855 29.425 14.2359 28.2554 13.0686C27.0853 11.9012 25.6337 11.0378 24.057 10.5719C23.7054 10.4679 23.3361 10.6687 23.2321 11.0204C23.1281 11.3721 23.3289 11.7415 23.6807 11.8455C26.4825 12.6736 28.6537 14.8398 29.4883 17.6401C29.5741 17.9283 29.8383 18.1146 30.1243 18.1146C30.1871 18.1147 30.251 18.1057 30.3142 18.0869Z" fill="#FF6838" fill-opacity="1.000000" fill-rule="nonzero"/>
	</g>
</svg>
