<svg width="22" height="22" viewBox="0 0 22 22" fill="none" xmlns="http://www.w3.org/2000/svg">
<rect width="22" height="22" fill="#E5E5E5"/>
<g id="Desktop" clip-path="url(#clip0_0_1)">
<rect width="1905" height="5196" transform="translate(-1279 -4933)" fill="url(#paint0_linear_0_1)"/>
<g id="BG">
<rect id="Rectangle 2" x="-1279" y="-4933" width="1905" height="5196" fill="#F9FAFF"/>
</g>
<g id="Footer">
<g id="contacts">
<g id="Phone">
<g id="Iconly/Light/Calling">
<g id="Calling">
<path id="Stroke 1" d="M13.353 1.5C17.054 1.911 19.978 4.831 20.393 8.532" stroke="#31352B" stroke-width="1.5" stroke-linecap="round" stroke-linejoin="round"/>
<path id="Stroke 3" d="M13.353 5.04297C15.124 5.38697 16.508 6.77197 16.853 8.54297" stroke="#31352B" stroke-width="1.5" stroke-linecap="round" stroke-linejoin="round"/>
<path id="Stroke 5" fill-rule="evenodd" clip-rule="evenodd" d="M10.0315 11.4724C14.0205 15.4604 14.9254 10.8467 17.4653 13.3848C19.9138 15.8328 21.3222 16.3232 18.2188 19.4247C17.8302 19.737 15.3613 23.4943 6.68447 14.8197C-1.99341 6.144 1.76157 3.67244 2.07394 3.28395C5.18377 0.173846 5.66682 1.58938 8.11539 4.03733C10.6541 6.5765 6.04254 7.48441 10.0315 11.4724Z" stroke="#31352B" stroke-width="1.5" stroke-linecap="round" stroke-linejoin="round"/>
</g>
</g>
</g>
</g>
</g>
</g>
<g id="&#208;&#158;&#208;&#177;&#208;&#190;&#208;&#183;&#208;&#189;&#208;&#176;&#209;&#135;&#208;&#181;&#208;&#189;&#208;&#184;&#209;&#143; &#208;&#180;&#208;&#187;&#209;&#143; &#208;&#148;&#208;&#151; (&#208;&#189;&#208;&#181; &#208;&#178;&#208;&#181;&#209;&#128;&#209;&#129;&#209;&#130;&#208;&#176;&#209;&#130;&#209;&#140;)">
</g>
<defs>
<linearGradient id="paint0_linear_0_1" x1="952.5" y1="0" x2="952.5" y2="5196" gradientUnits="userSpaceOnUse">
<stop stop-color="white" stop-opacity="0.26"/>
<stop offset="1" stop-color="white" stop-opacity="0.38"/>
</linearGradient>
<clipPath id="clip0_0_1">
<rect width="1905" height="5196" fill="white" transform="translate(-1279 -4933)"/>
</clipPath>
</defs>
</svg>
