<svg width="18.000000" height="18.000000" viewBox="0 0 18 18" fill="none" xmlns="http://www.w3.org/2000/svg" xmlns:xlink="http://www.w3.org/1999/xlink">
	<desc>
			Created with Pixso.
	</desc>
	<defs>
		<clipPath id="clip239_504">
			<rect id="close 1" width="18.000000" height="18.000000" fill="white" fill-opacity="0"/>
		</clipPath>
	</defs>
	<rect id="close 1" width="18.000000" height="18.000000" fill="#FFFFFF" fill-opacity="0"/>
	<g clip-path="url(#clip239_504)">
		<path id="Vector" d="M10.0552 9.00513L17.771 1.28931C18.0688 1.00171 18.0769 0.5271 17.7893 0.229248C17.5017 -0.0683594 17.0273 -0.0766602 16.7295 0.210938C16.7231 0.217041 16.717 0.223145 16.7109 0.229248L8.99512 7.94531L1.2793 0.229248C0.981445 -0.0583496 0.506836 -0.0500488 0.219238 0.247803C-0.0612793 0.53833 -0.0612793 0.998779 0.219238 1.28931L7.93506 9.00513L0.219238 16.7209C-0.0734863 17.0137 -0.0734863 17.4883 0.219238 17.781C0.511963 18.0735 0.986572 18.0735 1.2793 17.781L8.99512 10.0652L16.7109 17.781C17.0088 18.0686 17.4834 18.0603 17.771 17.7625C18.0515 17.4719 18.0515 17.0115 17.771 16.7209L10.0552 9.00513Z" fill="#363853" fill-opacity="1.000000" fill-rule="nonzero"/>
	</g>
</svg>
